<svg xmlns="http://www.w3.org/2000/svg" version="1.1" xmlns:xlink="http://www.w3.org/1999/xlink" xmlns:svgjs="http://svgjs.dev/svgjs" width="1500" height="1500" viewBox="0 0 1500 1500"><rect width="1500" height="1500" fill="#000000"></rect><g transform="matrix(0.6666666666666666,0,0,0.6666666666666666,249.39393939393938,438.58569500674764)"><svg viewBox="0 0 396 247" data-background-color="#ffffff" preserveAspectRatio="xMidYMid meet" height="935" width="1500" xmlns="http://www.w3.org/2000/svg" xmlns:xlink="http://www.w3.org/1999/xlink"><g id="tight-bounds" transform="matrix(1,0,0,1,0.2400000000000091,-0.09999999999999432)"><svg viewBox="0 0 395.52 247.2" height="247.2" width="395.52"><g><svg></svg></g><g><svg viewBox="0 0 395.52 247.2" height="247.2" width="395.52"><g transform="matrix(1,0,0,1,75.54432,103.14064737839544)"><svg viewBox="0 0 244.43135999999998 40.91870524320909" height="40.91870524320909" width="244.43135999999998"><g><svg viewBox="0 0 244.43135999999998 40.91870524320909" height="40.91870524320909" width="244.43135999999998"><g><svg viewBox="0 0 244.43135999999998 40.91870524320909" height="40.91870524320909" width="244.43135999999998"><g><svg viewBox="0 0 244.43135999999998 40.91870524320909" height="40.91870524320909" width="244.43135999999998"><g id="textblocktransform"><svg viewBox="0 0 244.43135999999998 40.91870524320909" height="40.91870524320909" width="244.43135999999998" id="textblock"><g><svg viewBox="0 0 244.43135999999998 40.91870524320909" height="40.91870524320909" width="244.43135999999998"><g transform="matrix(1,0,0,1,0,0)"><svg width="244.43135999999998" viewBox="2.2 -32.4 237.42000000000002 39.75" height="40.91870524320909" data-palette-color="#41907a"><path d="M19.5-7L19 0 2.2 0 2.2-31.05 19.5-31.05 19-23.4 10.75-23.4 10.75-18.75 17.9-18.75 17.9-12.15 10.75-12.15 10.75-7 19.5-7ZM39.75-17.7L39.75-17.7 39.5-7.35Q39.5-6.4 39.97-6.08 40.45-5.75 41.6-5.75L41.6-5.75 40.85 0.3Q37.95 0.5 37.65 0.5L37.65 0.5Q33.95 0.5 32.95-2.05L32.95-2.05 32.7-2.05Q30.85 0.5 27 0.5L27 0.5Q24.05 0.5 22.47-1.4 20.9-3.3 20.9-6.6L20.9-6.6Q20.9-10.75 23.47-12.35 26.05-13.95 31.6-14.45L31.6-14.45 31.6-15.65Q31.6-17.05 30.2-17.05L30.2-17.05Q27.8-17.05 22.7-15.6L22.7-15.6 21.45-22.9Q27.85-24.55 32.1-24.55 36.35-24.55 38.05-22.9 39.75-21.25 39.75-17.7ZM30.1-5.35L30.1-5.35Q31.95-5.35 31.95-7.3L31.95-7.3 31.95-9.75Q30.1-9.5 29.32-8.97 28.55-8.45 28.55-7.2L28.55-7.2Q28.55-5.35 30.1-5.35ZM42.2-16.88Q42.2-20.5 44.42-22.53 46.65-24.55 50.55-24.55 54.45-24.55 58.45-23.55L58.45-23.55 57.6-16.6Q52.5-17.75 50.75-17.75L50.75-17.75Q49.7-17.75 49.7-16.9L49.7-16.9Q49.7-16.35 50.85-15.9L50.85-15.9Q54.85-14.45 56.87-12.6 58.9-10.75 58.9-7.05 58.9-3.35 57-1.43 55.1 0.5 51.17 0.5 47.25 0.5 43.35-0.5L43.35-0.5 43.9-7.25Q48.9-5.9 50.37-5.9 51.85-5.9 51.85-6.6 51.85-7.3 50.75-7.7L50.75-7.7Q46.3-9.4 44.25-11.33 42.2-13.25 42.2-16.88ZM73.14-23.95L81.34-23.95 75.14 0.7Q74.19 4.4 72.34 5.88 70.49 7.35 66.29 7.35L66.29 7.35 61.29 7.35 60.54 0.9 63.34 0.9Q65.04 0.9 65.04-0.45L65.04-0.45Q65.04-0.75 64.84-1.75L64.84-1.75 59.09-23.95 67.99-23.95 70.24-9 70.69-9 73.14-23.95ZM123.04-31.05L124.09 0 116.24 0 116.24-16.2 115.79-16.2 112.84 0 104.79 0 101.99-16.2 101.49-16.2 101.49 0 93.74 0 94.79-31.05 106.04-31.05 108.84-14.25 109.24-14.25 111.94-31.05 123.04-31.05ZM145.54-17.7L145.54-17.7 145.29-7.35Q145.29-6.4 145.76-6.08 146.24-5.75 147.39-5.75L147.39-5.75 146.64 0.3Q143.74 0.5 143.44 0.5L143.44 0.5Q139.74 0.5 138.74-2.05L138.74-2.05 138.49-2.05Q136.64 0.5 132.79 0.5L132.79 0.5Q129.84 0.5 128.26-1.4 126.69-3.3 126.69-6.6L126.69-6.6Q126.69-10.75 129.26-12.35 131.84-13.95 137.39-14.45L137.39-14.45 137.39-15.65Q137.39-17.05 135.99-17.05L135.99-17.05Q133.59-17.05 128.49-15.6L128.49-15.6 127.24-22.9Q133.64-24.55 137.89-24.55 142.14-24.55 143.84-22.9 145.54-21.25 145.54-17.7ZM135.89-5.35L135.89-5.35Q137.74-5.35 137.74-7.3L137.74-7.3 137.74-9.75Q135.89-9.5 135.11-8.97 134.34-8.45 134.34-7.2L134.34-7.2Q134.34-5.35 135.89-5.35ZM147.98-16.88Q147.98-20.5 150.21-22.53 152.43-24.55 156.33-24.55 160.23-24.55 164.23-23.55L164.23-23.55 163.38-16.6Q158.28-17.75 156.53-17.75L156.53-17.75Q155.48-17.75 155.48-16.9L155.48-16.9Q155.48-16.35 156.63-15.9L156.63-15.9Q160.63-14.45 162.66-12.6 164.68-10.75 164.68-7.05 164.68-3.35 162.78-1.43 160.88 0.5 156.96 0.5 153.03 0.5 149.13-0.5L149.13-0.5 149.68-7.25Q154.68-5.9 156.16-5.9 157.63-5.9 157.63-6.6 157.63-7.3 156.53-7.7L156.53-7.7Q152.08-9.4 150.03-11.33 147.98-13.25 147.98-16.88ZM174.83-23.7L174.83 0 166.58 0 166.58-23.7 174.83-23.7ZM167.23-25.6Q166.18-26.5 166.18-28.5 166.18-30.5 167.23-31.45 168.28-32.4 170.68-32.4 173.08-32.4 174.13-31.45 175.18-30.5 175.18-28.53 175.18-26.55 174.13-25.63 173.08-24.7 170.68-24.7 168.28-24.7 167.23-25.6ZM177.58-12.08Q177.58-18.65 180.1-21.6 182.63-24.55 188-24.55 193.38-24.55 195.83-21.65 198.28-18.75 198.28-12.13 198.28-5.5 195.88-2.5 193.48 0.5 188.03 0.5 182.58 0.5 180.08-2.5 177.58-5.5 177.58-12.08ZM189.6-16.8Q189.28-17.8 187.98-17.8 186.68-17.8 186.33-16.8 185.98-15.8 185.98-12.6L185.98-12.6 185.98-11.4Q185.98-7.85 186.33-6.8 186.68-5.75 187.95-5.75 189.23-5.75 189.58-6.8 189.93-7.85 189.93-11.1L189.93-11.1 189.93-12.55Q189.93-15.8 189.6-16.8ZM209.03-22.2L209.23-22.2Q211.98-24.55 215.28-24.55 218.58-24.55 219.9-23.03 221.23-21.5 221.23-18.45L221.23-18.45 221.23 0 212.73 0 212.73-15.6Q212.73-16.85 211.63-16.85L211.63-16.85Q210.23-16.85 209.28-16.15L209.28-16.15 209.28 0 200.88 0 200.88-23.95 208.53-23.95 209.03-22.2ZM222.92-16.88Q222.92-20.5 225.15-22.53 227.37-24.55 231.27-24.55 235.17-24.55 239.17-23.55L239.17-23.55 238.32-16.6Q233.22-17.75 231.47-17.75L231.47-17.75Q230.42-17.75 230.42-16.9L230.42-16.9Q230.42-16.35 231.57-15.9L231.57-15.9Q235.57-14.45 237.6-12.6 239.62-10.75 239.62-7.05 239.62-3.35 237.72-1.43 235.82 0.5 231.9 0.5 227.97 0.5 224.07-0.5L224.07-0.5 224.62-7.25Q229.62-5.9 231.1-5.9 232.57-5.9 232.57-6.6 232.57-7.3 231.47-7.7L231.47-7.7Q227.02-9.4 224.97-11.33 222.92-13.25 222.92-16.88Z" opacity="1" transform="matrix(1,0,0,1,0,0)" fill="#ffffff" class="wordmark-text-0" data-fill-palette-color="primary" id="text-0"></path></svg></g></svg></g></svg></g></svg></g></svg></g></svg></g></svg></g><g><path d="M0 123.6c0-68.262 55.338-123.6 123.6-123.6 59.595 0 109.34 42.178 121.011 98.311l-1.886 0c-11.641-55.107-60.553-96.466-119.125-96.466-67.243 0-121.755 54.512-121.755 121.755 0 67.243 54.512 121.755 121.755 121.755 58.572 0 107.484-41.359 119.125-96.466h1.886c-11.671 56.133-61.415 98.311-121.011 98.311-68.262 0-123.6-55.338-123.6-123.6z" fill="#ffffff" stroke="transparent" data-fill-palette-color="tertiary"></path></g></svg></g><defs></defs></svg><rect width="395.52" height="247.2" fill="none" stroke="none" visibility="hidden"></rect></g></svg></g></svg>